<svg width="77" height="127" viewBox="0 0 77 127" fill="none" xmlns="http://www.w3.org/2000/svg">
<rect x="8.47363" y="9.12659" width="58.9817" height="108.421" fill="white"/>
<rect x="14.4717" y="24.8915" width="47" height="3.72395" fill="#999999"/>
<rect x="14.4717" y="31.0092" width="47" height="3.72395" fill="#999999"/>
<rect x="14.4717" y="37.1272" width="47" height="3.72395" fill="#999999"/>
<rect x="14.4717" y="43.2451" width="47" height="3.72395" fill="#999999"/>
<rect x="15.4717" y="51.9691" width="47" height="3.72395" fill="#999999"/>
<rect x="15.4717" y="58.0868" width="47" height="3.72395" fill="#999999"/>
<rect x="15.4717" y="64.2048" width="47" height="3.72395" fill="#999999"/>
<rect x="15.4717" y="70.3228" width="47" height="3.72395" fill="#999999"/>
<rect x="21.1885" y="79.0468" width="33.5666" height="17.1912" fill="#EEEEEE"/>
<rect x="31.1396" y="98.2379" width="13.6644" height="1.68447" fill="#C4C4C4"/>
<rect x="14.4717" y="104.922" width="47" height="3.72395" fill="#999999"/>
<rect x="14.4717" y="111.04" width="47" height="3.72395" fill="#999999"/>
<rect x="14.3076" y="17.0861" width="37.4964" height="3.4385" fill="#5C5C5C"/>
<rect x="8.02197" y="9.51636" width="59.7354" height="107.952" rx="3" stroke="black" stroke-width="4"/>
</svg>
