<svg width="199" height="128" viewBox="0 0 199 128" fill="none" xmlns="http://www.w3.org/2000/svg">
<rect x="13.1318" y="11.1665" width="175.603" height="104.694" fill="white"/>
<mask id="path-2-inside-1" fill="white">
<rect x="6.02197" y="8.01636" width="186.956" height="111.967" rx="5"/>
</mask>
<rect x="6.02197" y="8.01636" width="186.956" height="111.967" rx="5" stroke="black" stroke-width="14" mask="url(#path-2-inside-1)"/>
<rect x="50.8682" y="60.7526" width="97.1879" height="3.17156" fill="#999999"/>
<rect x="50.8682" y="65.963" width="97.1879" height="3.17156" fill="#999999"/>
<rect x="50.8682" y="71.1735" width="97.1879" height="3.17156" fill="#999999"/>
<rect x="50.8682" y="76.3839" width="97.1879" height="3.17156" fill="#999999"/>
<rect x="50.9438" y="23.8157" width="97.1879" height="3.17156" fill="#999999"/>
<rect x="50.9438" y="29.0261" width="97.1879" height="3.17156" fill="#999999"/>
<rect x="50.9438" y="34.2366" width="97.1879" height="3.17156" fill="#999999"/>
<rect x="50.9438" y="39.447" width="97.1879" height="3.17156" fill="#999999"/>
<rect x="50.9438" y="85.3817" width="97.1879" height="3.17156" fill="#999999"/>
<rect x="50.9438" y="90.5922" width="97.1879" height="3.17156" fill="#999999"/>
<rect x="50.9438" y="95.8026" width="97.1879" height="3.17156" fill="#999999"/>
<rect x="50.9438" y="101.013" width="97.1879" height="3.17156" fill="#999999"/>
<rect x="50.8682" y="52.5857" width="22.8138" height="4.52636" fill="#5C5C5C"/>
</svg>
