<svg width="77" height="127" viewBox="0 0 77 127" fill="none" xmlns="http://www.w3.org/2000/svg">
<rect x="8.47363" y="9.12659" width="58.9817" height="108.421" fill="white"/>
<rect x="15.9297" y="45.3856" width="20.9058" height="3.17156" fill="#999999"/>
<rect x="15.9297" y="50.5961" width="20.9058" height="3.17156" fill="#999999"/>
<rect x="15.9297" y="55.8065" width="20.9058" height="3.17156" fill="#999999"/>
<rect x="15.9297" y="61.017" width="20.9058" height="3.17156" fill="#999999"/>
<rect x="15.9297" y="68.2142" width="44.8366" height="3.17156" fill="#999999"/>
<rect x="15.9297" y="73.4247" width="44.8366" height="3.17156" fill="#999999"/>
<rect x="15.9297" y="103.955" width="44.8366" height="3.17156" fill="#999999"/>
<rect x="15.9297" y="109.166" width="44.8366" height="3.17156" fill="#999999"/>
<rect x="15.9297" y="114.376" width="44.8366" height="3.17156" fill="#999999"/>
<path d="M15.9297 80.6222H60.7663V98.5918H15.9297V80.6222Z" fill="#DE997F"/>
<rect x="24.6294" y="83.5601" width="25.847" height="3.76988" fill="#C4C4C4"/>
<rect x="20.186" y="89.5859" width="36.4157" height="2.82877" fill="white"/>
<rect x="37.9741" y="94.671" width="12.502" height="2.42729" fill="#999999"/>
<rect x="24.3228" y="94.671" width="12.502" height="2.42729" fill="#999999"/>
<rect x="42.8433" y="50.6547" width="3.27568" height="3.18079" fill="#C4C4C4"/>
<rect x="49.3467" y="48.9265" width="10.4127" height="3.18079" fill="#C4C4C4"/>
<rect x="49.3467" y="56.0758" width="2.53588" height="6.76684" fill="#C4C4C4"/>
<rect x="52.4673" y="56.0758" width="2.53588" height="6.76684" fill="#C4C4C4"/>
<rect x="41.6587" y="45.3856" width="19.1076" height="18.8029" fill="#AFF7A2"/>
<rect x="43.4712" y="47.744" width="16.2882" height="2.36483" fill="#999999"/>
<rect x="44.481" y="52.1073" width="15.2784" height="1.72816" fill="#999999"/>
<rect x="44.481" y="54.9425" width="15.2784" height="1.72816" fill="#999999"/>
<rect x="44.481" y="57.7777" width="15.2784" height="1.72816" fill="#999999"/>
<rect x="44.481" y="60.6129" width="15.2784" height="1.72816" fill="#999999"/>
<rect x="15.9297" y="38.4313" width="33.417" height="2.92846" fill="#5C5C5C"/>
<rect x="27.0903" y="84.3347" width="38.6349" height="30.8872" fill="#FFFD54"/>
<rect x="32.9424" y="94.6711" width="27.824" height="17.6664" fill="#CCCCCC"/>
<path d="M50.4687 103.505L43.5106 108.502L43.5106 98.5079L50.4687 103.505Z" fill="white"/>
<rect x="32.0488" y="88.3119" width="28.7175" height="3.68049" fill="#999999"/>
<rect x="63.1445" y="85.8221" width="0.431804" height="1.60116" transform="rotate(-45.2053 63.1445 85.8221)" fill="#A4A4A4"/>
<rect x="64.2524" y="85.4955" width="0.431804" height="1.60116" transform="rotate(45 64.2524 85.4955)" fill="#A4A4A4"/>
<rect x="9.87207" y="11.4027" width="55.8532" height="9.22308" fill="#62A1FF"/>
<rect x="8.02197" y="9.51636" width="59.7354" height="107.952" rx="3" stroke="black" stroke-width="4"/>
<circle cx="17.2287" cy="15.7765" r="3.21744" fill="white"/>
<rect x="53.8506" y="13.3955" width="9.0249" height="1.20374" fill="white"/>
<rect x="53.8506" y="15.4126" width="9.0249" height="1.20374" fill="white"/>
<rect x="53.8506" y="17.4294" width="9.0249" height="1.20374" fill="white"/>
<rect x="40.3804" y="14.4199" width="10.7994" height="3.18903" fill="white"/>
<rect x="27.0903" y="14.4199" width="10.7994" height="3.18903" fill="white"/>
<rect x="9.87207" y="20.626" width="55.8532" height="14.2744" fill="#838383"/>
<rect x="14.0107" y="22.3511" width="11.4401" height="8.39223" fill="#F373D7"/>
<rect x="14.0366" y="31.7554" width="11.4148" height="1.30964" fill="#F9F9F9"/>
<rect x="27.4512" y="22.3511" width="11.4401" height="8.39223" fill="#E8E09A"/>
<rect x="27.4771" y="31.7554" width="11.4148" height="1.30964" fill="#F9F9F9"/>
<rect x="40.8911" y="22.3511" width="11.4401" height="8.39223" fill="#60CAEC"/>
<rect x="40.917" y="31.7554" width="11.4148" height="1.30964" fill="#F9F9F9"/>
<rect x="54.3315" y="22.3511" width="11.4401" height="8.39223" fill="#AFF7A2"/>
<rect x="54.3569" y="31.7554" width="11.4148" height="1.30964" fill="#F9F9F9"/>
</svg>
